<svg id="Capa_1" enable-background="new 0 0 609.637 609.637" height="512" viewBox="0 0 609.637 609.637" width="512" xmlns="http://www.w3.org/2000/svg"><g><g id="Page-1_9_"><g id="_x30_10---Food-Drive-Through" transform="translate(-1)"><path id="Path_26_" clip-rule="evenodd" d="m485.735 246.833c-3.987-3.85-10.324-3.795-14.243.124s-3.974 10.256-.124 14.243l10.16 10.16c3.987 3.85 10.324 3.795 14.243-.124s3.974-10.256.124-14.243z" fill-rule="evenodd"/><path id="Path_25_" clip-rule="evenodd" d="m465.414 277.314c-3.987-3.85-10.324-3.795-14.243.124s-3.974 10.256-.124 14.243l30.481 30.481c3.987 3.85 10.324 3.795 14.243-.124s3.974-10.256.124-14.243z" fill-rule="evenodd"/><path id="Shape_25_" d="m610.637 50.809v-30.481c0-11.223-9.098-20.321-20.321-20.321h-193.047c-16.834 0-30.481 13.647-30.481 30.481v10.16c.053 12.871 8.186 24.321 20.321 28.612v32.351h-81.283v-71.123c0-16.834-13.647-30.481-30.481-30.481h-182.888c-16.834 0-30.481 13.647-30.481 30.481v162.566c0 16.834 13.647 30.481 30.481 30.481h182.887c16.834 0 30.481-13.647 30.481-30.481v-20.321h81.283v20.321c.053 12.871 8.186 24.321 20.321 28.612v135.824c-12.135 4.29-20.267 15.741-20.321 28.612v162.566h-42.511c1.203-3.254 1.836-6.691 1.869-10.16v-22.19c12.135-4.29 20.267-15.741 20.321-28.612v-62.7c.026-8.092-3.191-15.857-8.931-21.56l-17.73-17.73c13.508-1.637 24.283-12.05 26.379-25.494 2.097-13.444-4.995-26.644-17.363-32.317s-26.999-2.436-35.82 7.923l-11.237-33.702c-5.513-16.606-21.051-27.808-38.548-27.789h-159.273c-17.496-.016-33.033 11.184-38.548 27.789l-11.237 33.702c-8.825-10.328-23.433-13.542-35.778-7.871-12.344 5.671-19.424 18.847-17.338 32.271s12.83 23.831 26.313 25.488l-17.73 17.73c-5.735 5.707-8.951 13.47-8.931 21.56v62.7c.053 12.871 8.186 24.321 20.321 28.612v22.19c.034 3.469.666 6.906 1.87 10.16h-1.87c-11.223 0-20.321 9.098-20.321 20.321v20.321c0 11.223 9.098 20.321 20.321 20.321h568.981c11.223 0 20.321-9.098 20.321-20.321v-20.321c-.022-7.227-3.894-13.895-10.16-17.496v-483.188c6.265-3.601 10.137-10.269 10.159-17.496zm-325.133 60.962v81.283c0 5.611-4.549 10.16-10.16 10.16h-182.887c-5.611 0-10.16-4.549-10.16-10.16v-162.566c0-5.611 4.549-10.16 10.16-10.16h182.887c5.611 0 10.16 4.549 10.16 10.16zm101.604 40.642h-81.283v-30.481h81.283zm20.321 233.688c0-5.611 4.549-10.16 10.16-10.16h91.443c16.834 0 30.481-13.647 30.481-30.481v-111.764c0-16.834-13.647-30.481-30.481-30.481h-91.443c-5.611 0-10.16-4.549-10.16-10.16v-121.925h172.726v345.453h-172.726zm20.321-30.481v-132.085h81.283c5.611 0 10.16 4.549 10.16 10.16v111.765c0 5.611-4.549 10.16-10.16 10.16zm-20.321 81.283h172.726v111.764h-172.726zm-81.283-81.283c0-5.611 4.549-10.16 10.16-10.16s10.16 4.549 10.16 10.16-4.549 10.16-10.16 10.16h-10.16zm-241.157-47.073c2.767-8.294 10.53-13.888 19.274-13.889h159.274c8.758-.011 16.537 5.59 19.305 13.899l19.041 57.223h-235.965zm-63.654 47.073c0-5.611 4.549-10.16 10.16-10.16s10.16 4.549 10.16 10.16v10.16h-10.16c-5.611.001-10.16-4.548-10.16-10.16zm0 132.085v-62.7c-.002-2.698 1.069-5.286 2.977-7.194l31.711-31.711h255.757l31.711 31.711c1.908 1.908 2.979 4.496 2.977 7.194v62.7c0 5.611-4.549 10.16-10.16 10.16h-304.813c-5.611.001-10.16-4.548-10.16-10.16zm304.811 30.481v20.321c0 5.611-4.549 10.16-10.16 10.16h-40.642c-5.611 0-10.16-4.549-10.16-10.16v-20.321zm-79.414 30.481h-125.663c1.203-3.254 1.836-6.691 1.87-10.16v-20.321h121.925v20.321c.033 3.469.665 6.906 1.868 10.16zm-144.114-30.481v20.321c0 5.611-4.549 10.16-10.16 10.16h-40.642c-5.611 0-10.16-4.549-10.16-10.16v-20.321zm487.698 71.123h-568.981v-20.321h568.981zm0-538.5h-193.047c-5.611 0-10.16-4.549-10.16-10.16v-10.16c0-5.611 4.549-10.16 10.16-10.16h193.047z"/><path id="Shape_24_" d="m61.976 477.545h30.481c7.059.01 13.618-3.644 17.325-9.652 3.706-6.008 4.029-13.509.852-19.813l-10.16-20.321c-3.438-6.881-10.485-11.214-18.177-11.176h-20.321c-11.223 0-20.321 9.098-20.321 20.321v20.321c0 5.389 2.141 10.558 5.952 14.369 3.811 3.81 8.98 5.951 14.369 5.951zm0-40.642h20.321l10.211 20.321h-30.532z"/><path id="Shape_23_" d="m135.253 466.368c3.436 6.878 10.478 11.21 18.167 11.176h60.962c7.692.035 14.737-4.297 18.177-11.176l10.16-20.321c3.177-6.304 2.854-13.805-.852-19.813s-10.265-9.662-17.325-9.652h-81.283c-7.059-.01-13.618 3.644-17.325 9.652-3.706 6.008-4.029 13.509-.852 19.813zm89.289-29.465-10.16 20.321h-60.962l-10.16-20.321z"/><path id="Shape_22_" d="m275.344 477.545h30.481c11.223 0 20.321-9.098 20.321-20.321v-20.321c0-11.223-9.098-20.321-20.321-20.321h-20.321c-7.692-.035-14.737 4.297-18.177 11.176l-10.16 20.321c-3.177 6.304-2.854 13.805.852 19.813 3.707 6.009 10.266 9.663 17.325 9.653zm10.16-40.642h20.321v20.321h-30.481z"/><path id="Shape_21_" d="m204.221 40.648h-40.641c-27.05.068-49.291 21.343-50.558 48.363-6.565 5.681-10.358 13.92-10.404 22.602s3.657 16.961 10.16 22.713v18.085c0 16.834 13.647 30.481 30.481 30.481h81.283c16.834 0 30.481-13.647 30.481-30.481v-18.085c6.503-5.752 10.207-14.031 10.16-22.713s-3.839-16.921-10.404-22.602c-1.267-27.019-23.508-48.295-50.558-48.363zm-40.641 20.321h40.642c12.871.053 24.321 8.186 28.612 20.321h-97.865c4.29-12.135 15.74-20.267 28.611-20.321zm71.123 91.444c0 5.611-4.549 10.16-10.16 10.16h-81.283c-5.611 0-10.16-4.549-10.16-10.16v-10.16h101.604v10.16zm0-30.482h-101.604c-5.611 0-10.16-4.549-10.16-10.16s4.549-10.16 10.16-10.16h101.604c5.611 0 10.16 4.549 10.16 10.16 0 5.612-4.549 10.16-10.16 10.16z"/></g></g></g></svg>