<svg id="Capa_1" enable-background="new 0 0 512 512" height="512" viewBox="0 0 512 512" width="512" xmlns="http://www.w3.org/2000/svg"><g><g><path d="m347.348 293.779c-5.09-.979-18.897-3.637-25.197-4.849-7.602-1.463-13.12-8.143-13.12-15.884v-9.465c5.505-3.373 10.812-7.293 15.906-11.77 18.076-15.889 29.242-38.423 31.497-63.519 13.203-.454 23.778-11.456 23.722-24.867l-.079-19.041c-.025-5.902-2.147-11.553-5.911-15.987v-23.337c0-4.194-3.4-7.594-7.594-7.594s-7.594 3.4-7.594 7.594v16.265c-69.191-19.452-136.773-19.453-205.956 0v-39.378c0-25.495 17.27-47.639 41.997-53.851l42.16-10.59c12.313-3.092 25.329-3.092 37.641 0l42.16 10.59c20.671 5.192 36.731 22.038 40.915 42.917.824 4.112 4.827 6.777 8.938 5.954 4.112-.824 6.778-4.826 5.954-8.938-5.33-26.595-25.783-48.051-52.107-54.663l-42.16-10.59c-14.733-3.701-30.308-3.701-45.042 0l-42.16 10.59c-31.491 7.91-53.485 36.112-53.485 68.581v46.451c-3.764 4.434-5.886 10.085-5.911 15.987l-.079 19.041c-.056 13.41 10.519 24.412 23.722 24.867 2.255 25.097 13.421 47.63 31.497 63.519 5.093 4.477 10.401 8.396 15.906 11.77v9.465c0 7.073-4.343 13.66-13.05 15.864l-25.266 4.87c-69.718 13.417-120.014 74.7-120.014 145.313v30.905c0 23.16 18.842 42.003 42.003 42.003h338.718c23.16 0 42.003-18.842 42.003-42.003v-30.905c0-70.89-50.563-131.949-120.014-145.315zm2.572 16.084c8.197 1.935 16.071 4.62 23.561 7.966v85.439c-4.99-3.38-11.004-5.357-17.471-5.357h-6.089v-88.048zm1.841-174.792c-7.84 7.721-16.978 19.85-35.509 16.649-20.273-3.496-40.26-5.244-60.252-5.244-19.987 0-39.978 1.748-60.247 5.243-18.395 3.175-27.616-8.86-35.545-16.64 64.313-17.528 127.232-17.531 191.553-.008zm-154.67 105.332c-15.288-13.438-24.682-32.657-26.453-54.118-.617-7.474-6.749-13.135-14.263-13.167-5.174-.022-9.365-4.342-9.343-9.63l.079-19.041c.001-.29.023-.577.05-.863 11.637 11.26 24.692 27.67 51.172 23.103 38.806-6.692 76.533-6.692 115.337.001 27.452 4.733 41.424-13.716 51.167-23.144.029.299.051.6.052.903l.079 19.041c.022 5.288-4.169 9.607-9.342 9.63-7.514.032-13.646 5.693-14.263 13.168-1.771 21.46-11.165 40.68-26.453 54.118-34.974 30.741-82.492 31.053-117.819-.001zm111.364 59.144-12.833 10.31c-21.81 17.522-53.38 17.409-75.064-.271l-14.472-11.799c13.511-10.476 11.956-26.004 12.071-26.521 24.736 10.071 50.652 10.192 75.686 0 .088.346-1.501 18.069 14.612 28.281zm-129.242 6.897 10.886-2.095 20.861 17.009c27.217 22.191 66.505 22.57 94.174.339l20.661-16.598 8.936 1.72v91.093h-155.518zm-60.826 138.412c-4.631 5.589-7.181 12.665-7.181 19.924v32.032h-24.565c-14.785 0-26.814-12.029-26.814-26.814v-25.439h58.806zm6.889-15.486h-65.088c3.227-44.068 28.204-82.941 65.087-104.703v21.961c0 4.194 3.4 7.594 7.594 7.594s7.594-3.4 7.594-7.594v-29.649c7.5-3.207 15.375-5.753 23.561-7.557v88.49h-6.179c-6.429 0-12.41 1.954-17.382 5.298v-21.08c0-4.194-3.4-7.594-7.594-7.594s-7.594 3.4-7.594 7.594v47.24zm260.331 67.442h-259.214v-32.032c0-8.196 5.618-11.911 8.23-15.715 4.669-5.636 7.181-12.777 7.181-19.924 0-8.845 7.196-16.041 16.041-16.041h198.163c8.845 0 16.041 7.196 16.041 16.041.085.57-.804 9.89 5.991 19.214 2.852 4.594 7.565 8.091 7.565 15.605v32.852zm3.062-67.442v-103.533c35.815 21.968 59.973 60.244 63.143 103.533zm63.504 40.627c0 14.785-12.029 26.814-26.814 26.814h-24.564v-32.851c0-6.654-2.072-13.014-5.991-18.393l-.735-1.008h58.104z"/><path d="m227.807 41.458c-9.858 0-17.878 8.02-17.878 17.878v13.184c0 9.858 8.02 17.878 17.878 17.878h56.386c9.858 0 17.878-8.02 17.878-17.878v-13.184c0-9.858-8.02-17.878-17.878-17.878zm59.076 17.878v13.184c0 1.483-1.206 2.69-2.69 2.69h-56.386c-1.483 0-2.69-1.206-2.69-2.69v-13.184c0-1.483 1.206-2.69 2.69-2.69h56.386c1.483 0 2.69 1.207 2.69 2.69z"/>
<defs>
<style>.a{fill:#ffe295;}</style>
</defs>

</g></g></svg>