<svg xmlns="http://www.w3.org/2000/svg" width="80" height="70.979" viewBox="0 0 80 70.979"><defs><style>.a{fill:#ffe295;}</style></defs><g transform="translate(-0.001 0)"><path class="a" d="M96.418,284.879a1.172,1.172,0,0,0-1.172,1.172v18.683H71.091V282.555a2.738,2.738,0,0,0-2.734-2.735H54.819a2.738,2.738,0,0,0-2.734,2.735v22.178H27.929V286.051a1.172,1.172,0,0,0-2.344,0v19.23a1.8,1.8,0,0,0,1.8,1.8H95.793a1.8,1.8,0,0,0,1.8-1.8v-19.23a1.172,1.172,0,0,0-1.172-1.172Zm-41.99,19.855V282.555a.392.392,0,0,1,.391-.391H68.357a.392.392,0,0,1,.391.391v22.178Zm0,0" transform="translate(-21.587 -236.098)"/><path class="a" d="M351.5,313.633a2.5,2.5,0,0,0,2.5-2.5V298.35a2.5,2.5,0,0,0-2.5-2.495h-14.5a2.5,2.5,0,0,0-2.5,2.495v12.788a2.5,2.5,0,0,0,2.5,2.5Zm-14.654-2.5V298.35a.151.151,0,0,1,.151-.151h14.5a.151.151,0,0,1,.151.151v12.788a.151.151,0,0,1-.151.151h-14.5A.151.151,0,0,1,336.844,311.138Zm0,0" transform="translate(-282.234 -249.628)"/><path class="a" d="M69.743,313.633a2.5,2.5,0,0,0,2.5-2.5V298.35a2.5,2.5,0,0,0-2.5-2.495h-14.5a2.5,2.5,0,0,0-2.5,2.495v12.788a2.5,2.5,0,0,0,2.5,2.5Zm-14.654-2.5V298.35a.151.151,0,0,1,.151-.151h14.5a.151.151,0,0,1,.151.151v12.788a.151.151,0,0,1-.151.151h-14.5A.151.151,0,0,1,55.09,311.138Zm0,0" transform="translate(-44.504 -249.628)"/><path class="a" d="M76.557,17.276a2.273,2.273,0,0,1,2.272-2.27A1.172,1.172,0,0,0,80,13.835V10.967A1.172,1.172,0,0,0,78.829,9.8H59.483a1.172,1.172,0,0,0,0,2.344H77.657v.674A4.632,4.632,0,0,0,74.364,16.1H55.928V5.7a5.709,5.709,0,0,0-5.7-5.7H29.775a5.708,5.708,0,0,0-5.7,5.7V9.8H1.172A1.172,1.172,0,0,0,0,10.967v2.867a1.172,1.172,0,0,0,1.172,1.172,2.273,2.273,0,0,1,2.272,2.27,1.172,1.172,0,0,0,.56,1v8H1.9a1.8,1.8,0,0,0-1.8,1.8v6.381a1.8,1.8,0,0,0,1.8,1.8H4v9.018a1.172,1.172,0,0,0,2.344,0V36.255h67.4v9.02a1.172,1.172,0,0,0,2.344,0v-9.02H78.2a1.8,1.8,0,0,0,1.8-1.8V28.077a1.8,1.8,0,0,0-1.8-1.8H76.094V18.21a1.172,1.172,0,0,0,.463-.933ZM26.417,5.7a3.362,3.362,0,0,1,3.358-3.358H50.226A3.362,3.362,0,0,1,53.584,5.7V18.488a3.362,3.362,0,0,1-3.358,3.358H29.775a3.362,3.362,0,0,1-3.358-3.358V5.7Zm51.24,28.21H2.441V28.624H77.657ZM6.348,26.28V18.448H20.558a1.172,1.172,0,0,0,0-2.344H5.637a4.632,4.632,0,0,0-3.293-3.291v-.674H24.073v6.349a5.709,5.709,0,0,0,5.7,5.7H50.226a5.708,5.708,0,0,0,5.7-5.7v-.04H73.75V26.28Zm0,0"/><path class="a" d="M215.609,359.543h-.937a1.172,1.172,0,0,0,0,2.344h.938a1.172,1.172,0,0,0,0-2.344Zm0,0" transform="translate(-180.14 -303.365)"/><path class="a" d="M195.952,32.277h1.436l1.473,7.043a2.976,2.976,0,0,0,2.9,2.356h6.959a2.978,2.978,0,0,0,2.772-1.916l2.3-6.083a1.884,1.884,0,0,0-1.762-2.55h-9.842a1.172,1.172,0,1,0,0,2.344h9.177L209.3,38.933a.622.622,0,0,1-.579.4h-6.959a.622.622,0,0,1-.605-.492l-1.479-7.071a2.319,2.319,0,0,0-2.261-1.837h-1.463a1.172,1.172,0,0,0,0,2.344Zm0,0" transform="translate(-164.346 -25.257)"/><path class="a" d="M232.734,111.383h-.312a1.172,1.172,0,0,0,0,2.344h.313a1.172,1.172,0,0,0,0-2.344Zm0,0" transform="translate(-195.117 -93.98)"/><path class="a" d="M265.234,111.383h-.312a1.172,1.172,0,0,0,0,2.344h.313a1.172,1.172,0,0,0,0-2.344Zm0,0" transform="translate(-222.539 -93.98)"/></g></svg>