<svg xmlns="http://www.w3.org/2000/svg" width="80" height="70.592" viewBox="0 0 80 70.592"><defs><style>.a{fill:#ffe295}</style></defs><g transform="translate(0 -30.107)"><path class="a" d="M74.129,30.107H48.543a1.174,1.174,0,0,0,0,2.348H74.129a3.527,3.527,0,0,1,3.523,3.523V77.073H72.022V41A3.527,3.527,0,0,0,68.5,37.481h-57A3.526,3.526,0,0,0,7.978,41v36.07H2.348v-41.1a3.527,3.527,0,0,1,3.523-3.523H43.846a1.174,1.174,0,1,0,0-2.348H5.871A5.878,5.878,0,0,0,0,35.978V83.454a5.877,5.877,0,0,0,5.871,5.871H31.688L30.5,98.35H26.333a1.174,1.174,0,0,0,0,2.348H53.667a1.174,1.174,0,1,0,0-2.348H49.5l-1.183-9.025H60.754a1.174,1.174,0,1,0,0-2.348H5.871a3.527,3.527,0,0,1-3.523-3.523V79.421h75.3v4.033a3.527,3.527,0,0,1-3.523,3.523H65.451a1.174,1.174,0,1,0,0,2.348h8.679A5.877,5.877,0,0,0,80,83.454V35.978a5.877,5.877,0,0,0-5.871-5.871Zm-27,68.243H32.873l1.183-9.025H45.943ZM10.326,41A1.176,1.176,0,0,1,11.5,39.829h57A1.176,1.176,0,0,1,69.674,41v5.779H10.326Zm0,8.127H69.674V77.073H63.966V71.839a1.174,1.174,0,0,0-1.174-1.174H42.811a1.174,1.174,0,0,0-1.174,1.174v5.234H38.363V71.839a1.174,1.174,0,0,0-1.174-1.174H17.209a1.174,1.174,0,0,0-1.174,1.174v5.234H10.326ZM61.617,77.073H43.985v-4.06H61.617Zm-25.6,0H18.383v-4.06H36.015Z" transform="translate(0)"/><path class="a" d="M85.009,102.455a1.8,1.8,0,1,0,1.8,1.8A1.806,1.806,0,0,0,85.009,102.455Z" transform="translate(-70.205 -61.044)"/><path class="a" d="M122.052,102.455a1.8,1.8,0,1,0,1.8,1.8A1.806,1.806,0,0,0,122.052,102.455Z" transform="translate(-101.46 -61.044)"/><path class="a" d="M159.094,102.455a1.8,1.8,0,1,0,1.8,1.8A1.806,1.806,0,0,0,159.094,102.455Z" transform="translate(-132.714 -61.044)"/><path class="a" d="M103.8,190.335h8.542a1.174,1.174,0,1,0,0-2.348h-7.368v-10.3H148.2v10.3H117.034a1.174,1.174,0,1,0,0,2.348h32.341a1.174,1.174,0,0,0,1.174-1.174V176.509a1.174,1.174,0,0,0-1.174-1.174H103.8a1.174,1.174,0,0,0-1.174,1.174V189.16A1.174,1.174,0,0,0,103.8,190.335Z" transform="translate(-86.586 -122.536)"/></g></svg>